<svg xmlns="http://www.w3.org/2000/svg" xml:space="preserve" width="100%" height="100%" version="1.1" style="shape-rendering:geometricPrecision; text-rendering:geometricPrecision; image-rendering:optimizeQuality; fill-rule:evenodd; clip-rule:evenodd"
viewBox="400 1500 2000 2600">
 <defs>
  <style type="text/css">
   <![CDATA[
    .fil1 {fill:white;fill-rule:nonzero}
    .fil2 {fill:#141414;fill-rule:nonzero}
   ]]>
  </style>
 </defs>
 <g>
   <path class="fil1" d="M1950.69 1731.37c72.3,-4.32 166.58,7.14 230.38,43.27 75.51,42.77 126.31,144.01 147.69,226.9 8.05,30.56 12.27,62.01 12.58,93.61 0.51,108.42 -43.35,219.99 -61.29,326.18 -25.94,153.4 15.74,322.08 -24.93,472.22 -24.1,88.98 -101.61,209.38 -151.24,290.66 -83.44,135.36 -169.35,269.18 -257.66,401.41 -76.73,113.73 -162.74,234.92 -234.77,350.09 -20.2,32.03 -39.06,64.9 -56.52,98.5 -35.7,70.17 -68.06,143.69 -107.11,212 -27.36,47.86 -67.37,102.24 -124.43,114.34 -116.81,24.78 -229.3,-31.8 -321.7,-98.16 -30.12,-21.6 -58.38,-42.73 -90.23,-61.61 -60.63,-36.58 -135.21,-58.08 -206.05,-47.09 -30.89,4.79 -58.37,14.11 -79.1,38.48 -11.32,12.76 -21.97,28.16 -38.76,12.02 -56.54,-54.32 -37.27,-156.46 -36.21,-227.65 0.57,-46.6 -0.08,-93.22 -1.95,-139.79 -5.05,-133.62 -15.43,-262.2 -45.1,-392.9 -25.89,-114.02 -63.43,-225.19 -68.78,-342.89 -5.67,-125 57.57,-253.44 151.43,-334.47 22.17,-19.36 54.66,-23.24 75.28,-44.09 10.55,-10.67 -2.9,-38.72 -7.09,-51.5 -5.91,-17.52 -9.66,-35.72 -11.15,-54.16 -1.99,-26.89 5.06,-59.52 18.65,-83.13 29.04,-50.42 74.74,-93.78 107.58,-142.2 8.36,-12.33 15.58,-29.25 22.1,-42.53 10.1,-20.64 20.64,-41.06 31.63,-61.23 33.2,-60.33 89.93,-136.52 135.15,-188.66 95.78,-110.44 214.76,-198.38 348.45,-257.53 41.89,-18.43 73.21,-30.86 118.21,-40.59 77.41,-16.72 155.39,-17.73 233.51,-29.29 99.7,-14.76 190.2,-32.95 291.43,-40.21zm-1304.47 1521.87c23.43,53.42 50.63,115.96 63.9,172.61 5.62,24.53 9.47,49.42 11.53,74.5 1.56,18.15 2.21,36.01 4.83,53.88 9.44,64.3 50.92,117.88 113.19,140.31 110.14,39.68 246.41,17.78 351.22,-29.19 79.43,-35.57 142.17,-85.88 206.74,-142.2 101.88,-93.29 160.17,-172.6 240.89,-283.88 -138.08,84.17 -323.6,33.56 -464.52,-16.69 -44.88,-16.01 -80.05,-27.32 -122.43,1.88 -28.87,18.95 -108.37,71.06 -138.14,57.69 -19.98,-8.98 -41.45,-92.03 -100.07,-86.29 -23.14,5.59 -51.37,17.73 -73.55,26.97 -33.1,13.78 -56.39,30.31 -93.59,30.41z"/>
   <path class="fil2" d="M1965.46 1758.51l1.89 -0.08c73.31,-2.77 180.67,13.59 234.74,66.52 64.09,62.73 105.69,166.86 110.86,255.87 1.95,33.46 -3.62,72.01 -9.11,105.37 -5.92,35.56 -13.32,70.86 -22.2,105.8 -9.97,38.81 -19.65,72.11 -27.21,112.38 -32.62,173.52 22.43,357.04 -40.26,524.92 -11.74,31.45 -35.03,71.1 -51.19,100.01 -35.76,63 -72.92,125.2 -111.42,186.55 -73.92,118.62 -149.68,236.1 -227.26,352.36l-141.51 209.21c-51.97,76.99 -111.02,160.36 -152.43,243.35l-65.34 132.7c-25.05,50.15 -48.77,99.87 -86.84,141.91 -31.4,36.24 -68.26,43.36 -114.44,43.18 -208.82,-0.84 -318.6,-227.5 -530.69,-215.35 -56.16,3.22 -93.71,12.98 -132.59,54.75 -35.76,-48.26 -23.43,-121.67 -21.76,-178.97 1,-32.29 1.17,-64.59 0.51,-96.88 -1.57,-74.86 -5.33,-149.66 -11.26,-224.3 -3.94,-48.35 -9.25,-94.54 -17.29,-142.28 -3.22,-13.41 -1.58,-35.74 -5.54,-48.42 -13.42,-42.97 -21.37,-87.04 -32.71,-130.54 -29.62,-113.56 -68.46,-243.77 -37.47,-360.49 19.46,-72.7 70.24,-162.77 131.43,-209.08 51.7,-39.14 113.12,-25.56 76.42,-120.88 19.27,-9.05 38.03,-29.33 53.18,-44.52 47.86,-7.1 105.72,-13.57 152.62,-2.19 46.31,12.43 74.62,20.78 115.26,47.76 -34.5,40.27 -66.48,59.51 -116.45,76.95 -51.08,17.82 -117.13,28.8 -144.15,81.33 -23.12,44.95 -17.57,95.93 -2.9,142.38 13.81,48.22 36.47,89.03 81.07,115.51 9.44,5.6 27.51,12.23 37.98,8.11 4.27,-1.69 5.03,-2.44 6.69,-5.93 -3.22,-3.26 -13.65,-6.73 -18.61,-8.43 -26.14,-8.96 -44.63,-28.58 -59.91,-51.73 -25.74,-39.01 -44.46,-109.51 -35.6,-156.13 13.88,-73.1 76.74,-78.63 136.78,-98.02 24.95,-8.06 63.66,-23.02 85.2,-39.07 126.96,-94.59 173.7,-284.13 201.09,-432.35 3.65,-19.74 15.71,-100.22 6.37,-113.74 -9.37,6.14 -16.86,55.03 -19.71,68.27 -7.1,32.21 -14.78,64.29 -23.04,96.22 -4.06,16.15 -7.26,33.26 -12.78,48.93 -2.87,8.17 -7.91,14.17 -16.02,17.61 -47.81,20.33 -97.54,12.75 -145.46,-3.03 -3.7,-1.22 -5.57,-1.83 -9.04,0.01l-0.36 3.15c8.86,14.32 60.98,27.42 77.52,31.43 20,4.85 40.31,0.09 59.84,-4.95 -23.16,33.23 -51.17,119.67 -43.1,159.21 -9.68,16.19 -20.21,31.86 -31.52,46.95 -43.2,-32.78 -119.8,-56.05 -174.21,-59.5 45.51,-9.8 99.1,-14.03 144.12,-0.3 11.02,3.36 24.37,12.52 37.4,16.34 22.32,-5.2 2.3,-43.35 -2.19,-55.35 -21.35,-56.96 -48.12,-96.03 -113.41,-99.91 -92.65,-5.51 -131.03,67.24 -174.46,134.7 -12.87,20.04 -38.81,46.18 -57.39,63.35 -1.41,-5.8 -2.6,-10.81 -3.55,-16.72 -12.52,-78 36.82,-118.64 80.22,-174.28 10.99,-14.1 35.44,-49.69 48.32,-58.65 18.33,-12.76 100.97,-60.17 111.66,-74.96 0.34,-4.72 1,-2.74 -1.6,-6.27 -2.91,-0.44 -5.65,-0.16 -8.22,1.45 -30.17,18.96 -61.37,36.33 -92.9,52.95 51.98,-102.7 100.5,-179.47 178.48,-266.63 91,-101.71 202.54,-182.97 327.24,-238.42 41,-18.12 73.37,-31.09 117.44,-40.16 77.39,-15.93 155.43,-17.37 233.73,-29.01 100.84,-14.98 194.49,-34.33 297.04,-39.97zm-1319.24 1494.73c23.43,53.42 50.63,115.96 63.9,172.61 5.62,24.53 9.47,49.42 11.53,74.5 1.56,18.15 2.21,36.01 4.83,53.88 9.44,64.3 50.92,117.88 113.19,140.31 110.14,39.68 246.41,17.78 351.22,-29.19 79.43,-35.57 142.17,-85.88 206.74,-142.2 101.88,-93.29 160.17,-172.6 240.89,-283.88 -138.08,84.17 -323.6,33.56 -464.52,-16.69 -44.88,-16.01 -80.05,-27.32 -122.43,1.88 -28.87,18.95 -108.37,71.06 -138.14,57.69 -19.98,-8.98 -41.45,-92.03 -100.07,-86.29 -23.14,5.59 -51.37,17.73 -73.55,26.97 -33.1,13.78 -56.39,30.31 -93.59,30.41z"/>
   <path class="fil1" d="M816.16 3167.5c61.74,-2.91 80.23,48.68 93.86,98.5 55.44,-9.83 84.83,-35.62 131.35,-64.75 14.23,-8.91 40.87,-22.71 58.43,-22.61 51.96,0.32 116.09,30.8 166.78,45.3 22.43,6.41 42.23,11.2 64.13,16.55 80.5,19.69 194.28,25.12 269.62,-11.4 28.79,-14.73 53.32,-35.93 80.44,-53.6 18.78,-12.23 28.39,9.43 22.59,18.75 -21.13,34 -46.46,67.13 -70.09,99.59 -39.3,54.04 -80.36,107.36 -124.39,157.6 -95.99,103.51 -207.59,202.52 -341.12,253.71 -153.25,60.58 -432.08,70.04 -467.73,-140.44 -11.38,-67.16 -5.07,-109.12 -30.78,-178.61 0.16,30.3 3.05,65.93 3.8,97.38 -0.14,34.58 -1.42,63.81 -4.38,97.94 -5.1,58.64 -26.02,106.4 -3.52,162.72 14.43,36.13 41.7,63.9 77.85,78.75 106.77,43.87 248.56,35.88 360.74,18.56 23.16,-3.58 53.96,-9.51 74.92,-16.43 22.11,-7.31 43.09,-17.64 62.36,-30.72 32.32,-21.69 65.57,-49.47 94.45,-75.79 10.96,-9.98 33.97,-39.37 44.41,-43.27l1.36 1.29c-0.21,1.73 -0.22,2.3 -0.56,3.87 -9.62,44.33 -96.69,120.48 -135.43,144.46 -101.6,62.92 -338.26,69.67 -454.73,42.67 -54.72,-12.69 -107.17,-36.2 -137.63,-85.69 -14.89,-24.19 -24.34,-53.71 -25.99,-82.11 -2.29,-39.27 9.45,-81.57 13.95,-120.71 7.46,-64.75 6.3,-153.14 -3.18,-217.93 -4.19,-28.64 -9.72,-57.52 -18.18,-85.22 -2.91,-9.53 -22.11,-58.18 -21.04,-62.68 11.5,-6.27 33.97,18.92 58.7,12.51 52.69,-13.64 105.04,-50.83 159.01,-58.19zm-169.94 85.74c23.43,53.42 50.63,115.96 63.9,172.61 5.62,24.53 9.47,49.42 11.53,74.5 1.56,18.15 2.21,36.01 4.83,53.88 9.44,64.3 50.92,117.88 113.19,140.31 110.14,39.68 246.41,17.78 351.22,-29.19 79.43,-35.57 142.17,-85.88 206.74,-142.2 101.88,-93.29 160.17,-172.6 240.89,-283.88 -138.08,84.17 -323.6,33.56 -464.52,-16.69 -44.88,-16.01 -80.05,-27.32 -122.43,1.88 -28.87,18.95 -108.37,71.06 -138.14,57.69 -19.98,-8.98 -41.45,-92.03 -100.07,-86.29 -23.14,5.59 -51.37,17.73 -73.55,26.97 -33.1,13.78 -56.39,30.31 -93.59,30.41z"/>
   <path class="fil1" d="M1446.17 2320.9c13.24,5.38 44.16,50.53 65.66,64.4 37.87,24.43 65.77,6.21 104.38,-7.02 23.12,-7.91 33.29,-12.29 56.86,-16.24 94.87,-15.9 149.4,23.48 199.38,101.35 13.62,21.23 32.83,51.83 51.07,69.32 10.36,9.93 24.31,19.98 38.46,24.16 6.84,2.03 19.98,1.16 24.33,4.31 -4.97,5.04 -20.17,9.74 -27.04,9.54 -67.88,-2.01 -95.91,-101.63 -140.55,-139.71 -35.4,-30.2 -78.37,-47.47 -123.89,-44.72 -37.18,2.24 -61.43,20.85 -84.47,47.21l4.88 -2.35c44.75,-21.28 88.23,-20.33 134.62,-3.76 4.27,1.88 8.5,3.86 12.68,5.93 79.71,39.33 90.48,110.84 135.7,178.52 12.28,18.39 27.62,37.13 41.82,54.17 5.51,6.62 19.59,13.35 21.26,18.34l-1.87 3.28c-26.42,16.24 -66.68,-40.42 -81.33,-57.94 -39.05,-10.43 -78.62,-20.98 -119.31,-27.3 -54.52,-8.25 -110.69,0.64 -164.17,11.6 -14.77,3.03 -58.9,24.66 -67.85,23.01 -23.74,-4.38 -63.04,-20.43 -88.57,-26.85 -10.28,-4.32 -33.4,-7.38 -38.11,-18.2 -2.58,-7.43 0.96,-16.58 9.08,-17.9 41.42,-6.74 74.63,11.23 81.12,-44.72 5.31,-39.85 -3.43,-80.68 -12.36,-119.43 -6.44,-27.92 -27.94,-48.33 -38.32,-74.16 -1.91,-4.78 3.83,-11.2 6.54,-14.84z"/>
   <path class="fil2" d="M1674.26 2447.94c41.17,-3.92 105.29,18.25 130.8,52.17 18.94,25.17 36.89,65.05 51.33,93.97 -28.98,-14.11 -53.23,-22.32 -83.72,-32.35 -68.76,-22.79 -139.97,-42.52 -212.09,-24.34 39.63,-40.93 48.7,-80.31 113.68,-89.45z"/>
   <path class="fil1" d="M1638.66 2088.28c103.44,-6.82 166.38,69.13 239.33,131.93 33.64,29.41 69.82,55.77 108.13,78.76 47.78,28.39 95.95,50.67 149.3,67.43 19.6,6.16 42.71,7.03 56.6,11.28l1.01 2.13c-11.31,25.41 -76.1,9.86 -96.46,2.01 -38.64,-14.89 -73.96,-31.33 -109.98,-51.51 -42.23,-24.13 -82.11,-52.18 -119.09,-83.77 -43.21,-36.85 -98.51,-93.97 -147.24,-118.83 -75.28,-35.21 -171.68,-8.49 -239.43,32.02 -10.23,6.11 -38.65,22.65 -47.29,10.14 1.74,-8.67 17.02,-9.83 27.45,-17.41 53.87,-39.15 111.06,-59.47 177.67,-64.18z"/>
   <path class="fil1" d="M1205.74 2835.99c8.93,-0.35 17.88,0.31 26.67,1.97 33.31,6.64 107.92,43.79 130.36,67.33 64.21,67.4 100.54,138.3 192.06,177.93 68.24,29.55 178.36,28.86 222.78,96.3 36.71,55.69 25.69,131.64 12.87,193.78 -1.04,2.99 -2.02,5.04 -3.35,7.92l-2.11 0.55c-4.53,-8.4 -1.46,-40.97 -2,-52.03 -2.26,-46.92 0.64,-125.82 -42.01,-157.65 -44.19,-32.97 -119.17,-42.34 -172.05,-59.05 -24.27,-7.7 -47.33,-18.78 -68.51,-32.94 -38.38,-25.12 -73.41,-62.03 -101.95,-98.05 -21.71,-27.42 -37.57,-52.46 -65.66,-74.69 -25.25,-19.99 -55.4,-34.45 -84.74,-47.83 -11.32,-5.16 -27.92,-8.57 -39.13,-14.41 -3,-1.57 -2.8,-5.75 -3.23,-9.13z"/>
   <path class="fil1" d="M985.53 2903.27c54.08,-5.61 114.78,36.26 130.38,87.41 10,32.77 -21.62,46.47 -46.16,27.7 -2.91,-2.23 -2.35,-2.51 -2.56,-5.6 3.81,-3.21 5.1,-3.87 7.32,-8.43 -0.18,-23.13 -40.22,-33.88 -58.2,-38.3 -10.85,-1.48 -21.88,-0.93 -32.52,1.61 -58.3,14.46 -0.55,61.59 -8.59,74.77 -6.77,1.04 -16.36,-3.51 -21.97,-7.07 -18.33,-11.85 -31.13,-30.57 -35.54,-51.94 -10.81,-51.02 24.68,-71.93 67.84,-80.15z"/>
   <path class="fil1" d="M1594.05 2958.26c14.24,4.31 40.82,38.64 57.72,50.96 82.88,60.46 192.21,76.61 292.45,63.99 47.87,-4.07 95.27,-20.52 129,-55.95 6.77,-7.1 14.16,-27.93 22.36,-28.85 4.96,5.67 3.24,10.75 2.07,17.64 -22.01,97.18 -200.1,99.1 -278.49,87.73 -78.87,-11.44 -170.28,-46.54 -217.93,-114.3 -5.29,-7.53 -8.63,-12.13 -7.18,-21.22z"/>
   <path class="fil1" d="M1713.59 3325.08c5.07,4.8 5.99,19.84 5.5,26.91 -3.68,52.63 -30.88,101.16 -54.57,147.16 -31.32,60.81 -65.85,119.5 -106.75,174.37 -13.9,18.66 -27.97,40.43 -44.9,56.25 -2.35,-0.67 -1.35,0.02 -2.85,-2.25 4.45,-8.91 9.68,-14.65 14.63,-22.97l24.78 -42.4c33.27,-55.98 67.01,-111.45 97.65,-168.99 22.54,-42.35 47.44,-85.17 58.69,-132.33 2.88,-12.05 3.86,-23.83 7.82,-35.75z"/>
   <path class="fil1" d="M1070.48 2859.47c27.83,-2.79 63.36,6.26 85.09,24.35 41.91,35.75 55.27,116.74 19.73,161.46 -20.42,25.69 -77.89,52.8 -108.96,29.6 -3.14,-2.34 -3.71,-4.07 -3.7,-7.7l2.61 -1.75c3.22,1.12 6.47,2.11 9.77,2.98 40.49,10.46 92.83,-21.64 100.34,-62.64 5.45,-29.77 0.74,-63.56 -15.15,-89.44 -27.11,-44.18 -83.75,-37.58 -127.85,-48.21l-2.33 -0.58c16.15,-7.31 22.91,-7.1 40.45,-8.07z"/>
   <path class="fil1" d="M671.91 3084.9c4.93,1.75 4.6,2.28 6.32,5.66 -0.25,26.53 -79.77,59.89 -99.26,85.34 -33.52,43.79 -10.76,96.29 -8.48,146.92 0.24,5.28 1.45,8.32 -1.48,11.89l-2.86 -2.58c-11.63,-21.35 -22.38,-64.83 -23.82,-88.81 -4.08,-67.94 27.52,-92.38 82.63,-123.22 18.71,-10.47 32.75,-19 46.95,-35.2z"/>
   <path class="fil1" d="M775.44 3921.39c88.36,-10.31 204.67,57.38 260.18,124.25 4.02,4.84 7.2,11.16 10.02,16.78 -20.09,-24.15 -47.04,-44.11 -73.09,-61.51 -73.88,-45.82 -150.47,-82.32 -238.52,-59.97 -19.44,4.93 -41.36,19.86 -58.23,21.17l-1.34 -1.27c5.83,-8.69 12.41,-10.25 20.66,-15.52 25,-16.01 50.71,-20.97 80.32,-23.93z"/>
   <path class="fil1" d="M1946.67 2735.07c30.7,0.08 61.58,4.7 91.34,12.04 14.88,3.66 77.88,32.65 67.62,50.81 -6.78,0.98 -26.33,-11.64 -35.15,-15.87 -53.76,-24.12 -103.09,-25.95 -160.47,-28.8 -6.51,-0.32 -13.32,-1.91 -17.64,-7.12l0.25 -1.85c8.86,-8.77 40.97,-8.57 54.05,-9.21z"/>
   <path class="fil1" d="M2102.68 2511.35c43.03,12.61 -43.93,121.29 -156.68,83.85 -7.33,-2.55 -10.56,-3.76 -13.71,-11.4l1.18 -2.42c9.54,-4.18 21.02,1.23 31.96,2.28 43.9,5.01 87.56,-6.08 116.82,-40.84 8.42,-10 7.02,-22.31 20.43,-31.47z"/>
   <path class="fil1" d="M1997.07 2697.5c62.4,-5.36 141.56,0.92 168.82,64.94 3.1,7.28 2.47,8.22 -0.03,14.95 -2.52,-0.24 -6.28,-0.63 -8.07,-2.57 -16.51,-17.82 -28.03,-34.15 -50.02,-45.77 -28.07,-14.84 -58.72,-16.06 -89.61,-19.78 -7.38,-0.88 -17.34,-1.05 -22.02,-7.01l0.93 -4.76z"/>
   <path class="fil1" d="M1081 2159.58c3.41,0.65 3.46,0.92 6.51,2.72 8.33,10.9 3.13,42.51 12.3,56.03 9.23,13.61 21.32,21.69 34.16,31.54 0.18,0.85 0.35,1.71 0.53,2.56l-3.93 3.75c-38.03,-6.69 -59.7,-27.51 -56.61,-66.76 0.97,-12.37 -0.11,-18.53 7.04,-29.84z"/>
   <path class="fil2" d="M896.51 2472.34c84.04,-1.79 97.11,52.93 126.68,118.57 -43.24,-27.73 -83.8,-27.78 -132.7,-24.74 -45.34,5.17 -87.55,12.44 -131.14,26.06 34.5,-56.54 63.51,-114.78 137.16,-119.89z"/>
   <path class="fil2" d="M1111.61 2445.75c1.72,10.6 -32.82,99.24 -40.32,112 -0.98,-25.38 24.07,-89 40.32,-112z"/>
 </g>
</svg>
