<?xml version="1.0" encoding="UTF-8"?>
<!DOCTYPE svg PUBLIC "-//W3C//DTD SVG 1.1//EN" "http://www.w3.org/Graphics/SVG/1.1/DTD/svg11.dtd">
<!-- Creator: CorelDRAW -->
<svg xmlns="http://www.w3.org/2000/svg" xml:space="preserve" width="66.1458mm" height="66.1458mm" version="1.1" style="shape-rendering:geometricPrecision; text-rendering:geometricPrecision; image-rendering:optimizeQuality; fill-rule:evenodd; clip-rule:evenodd"
viewBox="0 0 6614.58 6614.58"
 xmlns:xlink="http://www.w3.org/1999/xlink"
 xmlns:xodm="http://www.corel.com/coreldraw/odm/2003">
 <defs>
  <style type="text/css">
   <![CDATA[
    .fil1 {fill:white;fill-rule:nonzero}
    .fil0 {fill:#FEE883;fill-rule:nonzero}
   ]]>
  </style>
 </defs>
 <g id="Camada_x0020_1">
  <metadata id="CorelCorpID_0Corel-Layer"/>
  <g id="_1715576856336">
   <path class="fil0" d="M2266.47 2279.42c97.64,-6.76 141.91,70.51 130.93,157.69 -9.19,73.02 -45.68,136.28 -85.18,197.06 -70.24,108.08 -166.52,188.27 -266.86,266.97 1.83,40.21 5.62,95.7 27.76,129.61 9.01,13.79 27,29.03 42.85,30.39 169.77,4.36 271.49,-208.33 393.51,-297.61 29.85,-21.85 65.45,-9.47 87.54,14.46 9.16,9.93 22.77,30.28 23.36,44.24 2.95,69.19 -38.89,149.37 -12.66,216.15 6.42,16.34 38.39,8.83 49.42,2.94 72.52,-38.72 117.19,-127.47 159.3,-196.04 27.95,-45.52 67.85,-148.49 135.49,-80.47 19.57,20.67 6.9,76.54 -0.74,107.34 -10.46,42.2 -18,136.49 42.44,148.8 117.59,9.58 239.83,-117.14 307.6,-202.43 34.13,-42.96 45.9,-107.21 99.68,-137.94 35.65,-22.17 79.13,-37.38 121.48,-30.49 23.87,3.88 45.25,25.64 38.64,51.73 -13.29,52.47 -85.95,41.51 -117.82,63.08 -50.05,33.87 41.41,148.23 64.8,183.02 146.86,-24.41 309.74,-140.75 412.22,-244.94 -40.85,-1.2 -255.67,1.85 -175.31,-85.94 29.95,-32.71 184.01,-8.13 224.99,-2.58 9.12,-27.57 18.52,-55.05 28.16,-82.44 10.41,-28.85 45.06,-131.56 73.66,-137.11 117.48,-22.8 14.63,178.68 -1.95,221.9 5.1,-0.02 10.19,-0.01 15.29,0.05 42.79,0.47 165.47,-6.24 193.71,23.29 7.57,7.92 11.25,18.19 10.91,29.1 -0.41,13.04 -4.9,25.92 -14.59,34.92 -25.94,24.12 -194.58,8.43 -234.37,6.96 -7.56,22.26 -13.93,44.92 -19.07,67.86 -9.97,44.22 -44.16,261.52 27,266.16 99.45,6.48 220.69,-143.97 271.75,-220.73 25.6,-38.49 41.56,-98.65 79.2,-129.17 37.1,-27.51 68.87,32.75 88.68,48.59 30.39,24.27 55.21,38.86 80.2,68.37 57.54,67.93 5.19,151.54 35.49,224.32 48.39,73.93 277.19,-71.99 320.7,-99.97 -6.85,-29.77 -8.71,-60.48 -5.49,-90.87 4.76,-42.95 20.76,-85.09 55.57,-112.61 23.35,-18.82 53.3,-27.42 83.07,-23.83 63.67,7.97 111.31,68.63 101.29,133.1 -10.61,68.28 -58.68,106.46 -110.29,145.89 180.04,192.74 519.29,-113.42 716.58,-148.34 135.78,-29.55 263.92,26.12 387.48,75.46 40.6,16.24 158.54,40.97 139.93,105.2 -3.06,10.88 -10.37,20.06 -20.3,25.47 -7.64,4.07 -23.69,6.99 -31.71,4.1 -94.85,-34.22 -185.01,-75.09 -281.33,-105.78 -158.87,-50.6 -290.67,25.84 -425.72,99.21 -179.94,92.35 -425.6,181.73 -573.89,-13.1 -110.05,49.82 -271.57,171.69 -398.71,95.56 -53.6,-32.1 -67.35,-100.97 -59.72,-158.8 10.51,-79.63 0.45,-104.3 -66.88,-147.7 -56.6,97.28 -121.07,181.17 -211.56,251.02 -81.24,62.71 -198.21,113.64 -274.91,12.27 -46.97,-62.07 -41.66,-173.02 -31.09,-246.4 -129.48,109.22 -216.9,149.1 -377.5,204.3 1.97,54.17 1.76,91.25 -29.87,142.3 -62.27,100.53 -241.95,105.56 -275.26,-21.04 -7.69,-29.21 5.91,-76.56 24.05,-102.6 35.27,-50.61 104.09,-70.06 162.18,-80.58 -18.08,-22.67 -43.49,-60.47 -58.98,-84.69 -76.02,87.57 -165.4,175.14 -279.06,209.48 -124.78,37.69 -196.83,-19.03 -230.92,-135.96 -51.63,79.31 -135.74,191.02 -243.63,173.67 -125.68,-20.22 -107.85,-161.15 -93.55,-253.06 -108.22,112.35 -296.81,353.07 -480.43,232.39 -48.55,-31.91 -68.75,-102.52 -77.9,-157.19 -109.97,70.25 -336.51,255.47 -447.84,78.31 -31.83,-50.67 -5.78,-116.92 -16,-173.5 -48.01,21.28 -128.29,84.19 -175.06,116.26 -149.91,103.95 -327.83,159.91 -510.22,160.48 -143.19,0.07 -332.29,-42.65 -453.5,-130.83 -21.7,-15.78 -16.88,-50.03 2.35,-68.4 1.56,-1.49 3.21,-2.87 4.95,-4.14 24.81,-18.01 59.25,5.6 84.28,19.59 125.89,70.4 279.28,100.11 423.6,88.09 107.6,-8.91 212.24,-39.72 307.51,-90.56 39.84,-20.76 79.72,-44.96 116.47,-69.99 68.02,-45.93 127.58,-118.05 216.54,-114.82 105.76,3.83 85.02,116.58 77.81,188.36 -2.71,27.05 12.2,65.97 44.36,61.53 108.43,-14.99 247.02,-107.29 325.13,-182.34 8.17,-28.45 15.34,-71.99 23.55,-103.63 21.67,-81.61 50.83,-161.04 87.1,-237.29 45.89,-95.63 94.46,-184.26 199.31,-221.13zm-196.44 481.33l17.72 -14.03c91.74,-91.97 192.99,-194.43 215.5,-327.94 3.86,-22.88 3.93,-46.98 -25.95,-46.33 -0.69,0.02 -1.38,0.04 -2.07,0.07 -25.26,21.48 -46.87,43.28 -65.91,-70.66 -49.92,71.77 -122.14,233.15 -139.29,317.57zm1269.02 400.31c57.45,16.56 116.27,-27.06 104.84,-85.17l-2.84 -2.5c-37.72,3.17 -153.69,33.32 -102,87.67zm1687.47 -279c21.26,-23.43 64.19,-66.58 16.35,-88.05 -14.62,20.04 -38.87,67.26 -27.16,91.88 6.32,0.64 4.42,0.47 10.81,-3.83z"/>
   <path class="fil0" d="M1684.14 2512.27c44.3,-1.38 52.55,12.71 70.51,50.13 -26.87,47.01 -95.45,141.17 -131.9,180.35 -34.28,18.62 -69.45,-11.9 -63.02,-44.82 10.07,-51.66 86.06,-153.6 124.41,-185.66z"/>
  </g>
  <path class="fil1" d="M2151.8 4066.71l0 -504.47 176.39 0c54.09,0 101.48,10.7 142.17,32.1 40.69,21.41 72.44,51.04 95.25,88.9 22.81,37.87 34.22,81.49 34.22,130.88 0,49.39 -11.41,93.02 -34.22,130.88 -22.81,37.87 -54.56,67.62 -95.25,89.25 -40.69,21.64 -88.08,32.46 -142.17,32.46l-176.39 0zm95.25 -81.14l81.14 0c35.28,0 65.74,-7.05 91.37,-21.16 25.64,-14.12 45.39,-33.99 59.27,-59.62 13.87,-25.64 20.81,-55.86 20.81,-90.67 0,-34.8 -6.94,-65.03 -20.81,-90.66 -13.88,-25.64 -33.63,-45.39 -59.27,-59.27 -25.63,-13.87 -56.09,-20.81 -91.37,-20.81l-81.14 0 0 342.19z"/>
  <path id="_1" class="fil1" d="M2967.42 3955.94l49.39 57.15c-17.87,20.22 -40.81,36.1 -68.79,47.62 -27.99,11.53 -58.92,17.29 -92.78,17.29 -40.92,0 -76.91,-8 -107.95,-23.99 -31.05,-15.99 -55.27,-38.1 -72.67,-66.32 -17.41,-28.22 -26.11,-60.91 -26.11,-98.07 0,-37.16 8.35,-69.97 25.05,-98.43 16.7,-28.45 39.51,-50.68 68.44,-66.67 28.92,-15.99 61.5,-23.99 97.72,-23.99 35.27,0 66.67,7.88 94.19,23.64 27.51,15.75 49.03,37.51 64.55,65.26 15.53,27.75 23.29,59.97 23.29,96.66l0 4.23 -91.02 0 0 -9.88c0,-21.63 -3.88,-40.45 -11.64,-56.44 -7.76,-15.99 -18.34,-28.46 -31.75,-37.39 -13.4,-8.94 -29.28,-13.41 -47.62,-13.41 -19.29,0 -36.22,4.59 -50.8,13.76 -14.58,9.17 -25.99,22.34 -34.22,39.51 -8.23,17.17 -12.35,37.51 -12.35,61.03 0,24.93 5.06,46.21 15.17,63.85 10.11,17.64 23.99,31.05 41.63,40.22 17.64,9.17 37.98,13.76 61.03,13.76 42.33,0 78.08,-16.47 107.24,-49.39zm54.33 -38.1l-313.27 0 0 -59.27 301.98 0 11.29 27.52 0 31.75z"/>
  <path id="_2" class="fil1" d="M3058.44 4013.79l50.8 -57.85c15.99,15.99 35.16,28.69 57.5,38.1 22.34,9.41 45.27,14.11 68.79,14.11 21.64,0 38.92,-4 51.86,-11.99 12.93,-8 19.4,-17.88 19.4,-29.64 0,-12.23 -5.76,-21.28 -17.28,-27.16 -11.53,-5.88 -32.81,-10.94 -63.86,-15.17 -51.74,-7.53 -89.6,-19.64 -113.59,-36.34 -23.99,-16.69 -35.98,-39.86 -35.98,-69.49 0,-23.52 6.58,-44.1 19.75,-61.74 13.17,-17.64 31.52,-31.4 55.03,-41.27 23.52,-9.88 50.1,-14.82 79.73,-14.82 35.28,0 66.44,5.64 93.49,16.93 27.04,11.29 50.21,26.11 69.49,44.45l-50.8 57.86c-14.58,-15.05 -31.39,-27.05 -50.44,-35.99 -19.05,-8.93 -39.4,-13.4 -61.03,-13.4 -20.23,0 -36.34,3.76 -48.33,11.29 -12,7.52 -17.99,16.93 -17.99,28.22 0,9.88 5.88,17.4 17.63,22.58 11.76,5.17 32.46,9.64 62.09,13.4 50.8,7.53 88.9,19.99 114.3,37.4 25.4,17.4 38.1,42.57 38.1,75.49 0,23.99 -7.05,45.04 -21.16,63.15 -14.12,18.11 -33.52,31.98 -58.21,41.63 -24.7,9.64 -53.51,14.46 -86.43,14.46 -35.28,0 -67.74,-5.88 -97.37,-17.64 -29.63,-11.76 -54.8,-27.28 -75.49,-46.57z"/>
  <path id="_3" class="fil1" d="M3557.96 4066.71l-93.13 0 0.71 -354.19 92.42 -0.7 0 354.89zm-46.56 -416.27c-15.52,0 -28.81,-5.3 -39.87,-15.88 -11.05,-10.58 -16.34,-23.64 -15.87,-39.16 -0.47,-15.52 4.82,-28.45 15.87,-38.8 11.06,-10.35 24.11,-15.52 39.16,-15.52 16.47,0 29.99,5.29 40.57,15.87 10.59,10.58 16.11,23.64 16.58,39.16 0,15.05 -5.41,27.75 -16.23,38.1 -10.81,10.35 -24.22,15.76 -40.21,16.23z"/>
  <path id="_4" class="fil1" d="M4017.98 4022.97c0,39.04 -8.7,72.9 -26.1,101.6 -17.41,28.69 -41.4,50.91 -71.97,66.67 -30.57,15.76 -66.09,23.64 -106.54,23.64 -33.39,0 -64.56,-5.3 -93.48,-15.88 -28.93,-10.58 -53.04,-25.28 -72.32,-44.1l50.8 -62.08c14.11,14.58 30.22,25.87 48.33,33.86 18.11,8 38.92,12 62.44,12 23.99,0 44.57,-4.47 61.73,-13.41 17.17,-8.94 30.46,-21.64 39.87,-38.1 9.4,-16.46 14.11,-36.22 14.11,-59.27l0 -136.17c0,-24.46 -4.59,-45.15 -13.76,-62.08 -9.17,-16.94 -21.28,-29.76 -36.34,-38.46 -15.05,-8.7 -31.75,-13.05 -50.09,-13.05 -20.23,0 -37.86,4.7 -52.92,14.11 -15.05,9.41 -26.81,22.23 -35.27,38.45 -8.47,16.23 -12.7,34.46 -12.7,54.68 0,20.23 4.35,38.34 13.05,54.33 8.7,15.99 20.93,28.58 36.69,37.75 15.76,9.17 33.98,13.76 54.68,13.76 17.4,0 33.28,-3.41 47.62,-10.23 14.35,-6.82 26.34,-16.47 35.99,-28.93 9.64,-12.47 15.64,-26.93 17.99,-43.39l20.46 12.7c1.41,27.75 -3.65,52.68 -15.17,74.79 -11.52,22.1 -28.34,39.62 -50.45,52.56 -22.11,12.93 -48.45,19.4 -79.02,19.4 -32.45,0 -62.21,-7.64 -89.25,-22.93 -27.05,-15.29 -48.57,-36.69 -64.56,-64.2 -15.99,-27.52 -23.99,-59.39 -23.99,-95.61 0,-36.21 8,-68.2 23.99,-95.95 15.99,-27.75 37.39,-49.51 64.21,-65.26 26.81,-15.76 56.44,-23.64 88.9,-23.64 25.39,0 48.09,4.94 68.08,14.82 19.99,9.87 36.22,23.87 48.68,41.98 12.47,18.11 20.35,39.62 23.64,64.55l-19.76 0 0 -110.06 92.43 0 0 311.15z"/>
  <path id="_5" class="fil1" d="M4445.54 4066.71l-93.13 0 0 -205.32c0,-27.75 -6.35,-48.56 -19.05,-62.44 -12.7,-13.87 -29.87,-20.81 -51.51,-20.81 -15.05,0 -29.39,4 -43.03,11.99 -13.65,8 -24.7,20.47 -33.17,37.4 -8.46,16.93 -12.7,39.27 -12.7,67.03l0 172.15 -93.13 0 0 -354.89 92.43 0 0 110.06 -11.29 0c4.23,-31.51 13.05,-56.09 26.46,-73.73 13.4,-17.63 29.16,-29.98 47.27,-37.04 18.11,-7.05 36.1,-10.58 53.97,-10.58 42.34,0 75.73,12.93 100.19,38.8 24.46,25.87 36.69,63.5 36.69,112.89l0 214.49z"/>
 </g>
</svg>
