<?xml version="1.0" encoding="UTF-8"?>
<!DOCTYPE svg PUBLIC "-//W3C//DTD SVG 1.1//EN" "http://www.w3.org/Graphics/SVG/1.1/DTD/svg11.dtd">
<!-- Creator: CorelDRAW -->
<svg xmlns="http://www.w3.org/2000/svg" xml:space="preserve" width="66.1458mm" height="66.1458mm" version="1.1" style="shape-rendering:geometricPrecision; text-rendering:geometricPrecision; image-rendering:optimizeQuality; fill-rule:evenodd; clip-rule:evenodd"
viewBox="0 0 6614.58 6614.58"
 xmlns:xlink="http://www.w3.org/1999/xlink"
 xmlns:xodm="http://www.corel.com/coreldraw/odm/2003">
 <defs>
  <style type="text/css">
   <![CDATA[
    .fil0 {fill:white;fill-rule:nonzero}
   ]]>
  </style>
 </defs>
 <g id="Camada_x0020_1">
  <metadata id="CorelCorpID_0Corel-Layer"/>
  <path class="fil0" d="M1239.81 4498.31l-93.13 0 0 -491.77 92.43 0 0 110.06 -19.76 0c3.3,-23.04 11.17,-43.74 23.64,-62.08 12.46,-18.35 28.81,-32.81 49.04,-43.4 20.22,-10.58 43.27,-15.87 69.14,-15.87 32.45,0 62.09,8 88.9,23.99 26.81,15.99 48.09,38.1 63.85,66.32 15.76,28.22 23.64,61.15 23.64,98.78 0,37.16 -8,69.85 -23.99,98.07 -15.99,28.22 -37.4,50.33 -64.21,66.32 -26.81,15.99 -56.91,23.99 -90.31,23.99 -30.57,0 -56.91,-6.59 -79.02,-19.76 -22.11,-13.17 -38.8,-30.92 -50.09,-53.27 -11.29,-22.34 -16.23,-46.91 -14.82,-73.73l19.76 -12.7c2.35,16 8.23,30.23 17.63,42.69 9.41,12.46 21.52,22.11 36.34,28.93 14.82,6.82 30.93,10.23 48.33,10.23 20.7,0 38.81,-4.71 54.33,-14.11 15.52,-9.41 27.63,-22.58 36.33,-39.51 8.71,-16.94 13.06,-35.99 13.06,-57.15 0,-22.11 -4.12,-41.51 -12.35,-58.21 -8.23,-16.7 -19.76,-29.75 -34.57,-39.16 -14.82,-9.41 -32.34,-14.11 -52.57,-14.11 -19.75,0 -37.27,4.7 -52.56,14.11 -15.29,9.41 -27.28,22.46 -35.98,39.16 -8.7,16.7 -13.06,36.81 -13.06,60.32l0 311.86zm669.57 -498.12l0 84.66 -19.05 0c-22.11,0 -41.16,4.36 -57.15,13.06 -15.99,8.7 -28.58,22.22 -37.75,40.57 -9.17,18.34 -13.76,42.09 -13.76,71.26l0 151.69 -93.13 0 0 -354.89 92.43 0 0 115 -11.29 0c4.23,-31.51 13.05,-55.97 26.46,-73.37 13.4,-17.41 29.16,-29.75 47.27,-37.05 18.11,-7.29 35.87,-10.93 53.27,-10.93l12.7 0zm311.85 372.53c-38.57,0 -72.67,-8.12 -102.3,-24.34 -29.63,-16.23 -52.68,-38.46 -69.14,-66.68 -16.47,-28.22 -24.7,-60.67 -24.7,-97.36 0,-37.16 8.23,-69.85 24.7,-98.07 16.46,-28.23 39.51,-50.45 69.14,-66.68 29.63,-16.23 63.73,-24.34 102.3,-24.34 38.57,0 72.68,8.11 102.31,24.34 29.63,16.23 52.68,38.45 69.14,66.68 16.47,28.22 24.7,60.91 24.7,98.07 0,36.22 -8.23,68.55 -24.7,97.01 -16.46,28.46 -39.51,50.8 -69.14,67.03 -29.63,16.22 -63.74,24.34 -102.31,24.34zm0 -76.91c19.76,-0.47 37.28,-5.29 52.57,-14.46 15.29,-9.17 27.04,-22.11 35.28,-38.81 8.23,-16.69 12.34,-36.1 12.34,-58.2 0,-22.11 -4.11,-41.63 -12.34,-58.56 -8.24,-16.94 -19.99,-29.99 -35.28,-39.16 -15.29,-9.17 -32.81,-14 -52.57,-14.47 -19.75,0 -37.15,4.71 -52.21,14.12 -15.05,9.4 -26.81,22.57 -35.27,39.51 -8.47,16.93 -12.7,36.45 -12.7,58.56 0,22.1 4.23,41.51 12.7,58.2 8.46,16.7 20.22,29.76 35.27,39.16 15.06,9.41 32.46,14.11 52.21,14.11zm725.31 65.62l-92.43 0 0 -83.96 -0.7 -4.94 0 -86.08c0,-23.51 -4.23,-43.62 -12.7,-60.32 -8.47,-16.7 -20.34,-29.75 -35.63,-39.16 -15.29,-9.41 -32.81,-14.11 -52.57,-14.11 -19.75,0 -37.27,4.7 -52.56,14.11 -15.29,9.41 -27.04,22.46 -35.28,39.16 -8.23,16.7 -12.34,36.1 -12.34,58.21 0,21.16 4.47,40.21 13.4,57.15 8.94,16.93 21.17,30.1 36.69,39.51 15.52,9.4 33.63,14.11 54.33,14.11 17.4,0 33.39,-3.41 47.98,-10.23 14.58,-6.82 26.57,-16.47 35.98,-28.93 9.41,-12.46 15.29,-26.69 17.64,-42.69l20.46 12.7c1.41,26.82 -3.65,51.39 -15.17,73.73 -11.52,22.35 -28.22,40.1 -50.1,53.27 -21.87,13.17 -48.33,19.76 -79.37,19.76 -32.93,0 -62.91,-8 -89.96,-23.99 -27.04,-15.99 -48.44,-38.1 -64.2,-66.32 -15.76,-28.22 -23.64,-60.91 -23.64,-98.07 0,-37.63 7.88,-70.56 23.64,-98.78 15.76,-28.22 37.04,-50.33 63.85,-66.32 26.81,-15.99 56.68,-23.99 89.61,-23.99 27.28,0 50.91,5.17 70.9,15.52 19.99,10.35 36.22,24.7 48.69,43.04 12.46,18.34 20.1,39.28 22.93,62.79l-22.58 0 0 -263.17 93.13 0 0 508zm504.47 0l-92.43 0 0 -67.73 -0.71 -19.76 0 -267.4 93.14 0 0 354.89zm-88.2 -148.17l19.05 12.7c0.94,29.17 -4.35,54.68 -15.87,76.56 -11.53,21.87 -27.75,39.04 -48.68,51.5 -20.94,12.47 -45.51,18.7 -73.73,18.7 -41.87,0 -75.03,-12.35 -99.49,-37.04 -24.46,-24.7 -36.69,-60.56 -36.69,-107.6l0 -221.54 93.14 0 0 211.66c0,25.4 6.23,44.57 18.69,57.51 12.47,12.93 29.52,19.4 51.16,19.4 15.52,0 29.86,-3.41 43.03,-10.23 13.18,-6.82 24.23,-16.47 33.17,-28.93 8.93,-12.46 14.34,-26.69 16.22,-42.69zm530.58 31.05l57.85 56.44c-18.34,23.05 -40.57,40.81 -66.67,53.27 -26.11,12.47 -55.86,18.7 -89.25,18.7 -36.69,0 -69.62,-8.12 -98.78,-24.34 -29.16,-16.23 -52.09,-38.57 -68.79,-67.03 -16.7,-28.46 -25.05,-60.79 -25.05,-97.01 0,-36.69 8.47,-69.26 25.4,-97.72 16.93,-28.46 40.1,-50.8 69.5,-67.03 29.4,-16.23 62.67,-24.34 99.83,-24.34 32.46,0 61.62,6.23 87.49,18.7 25.87,12.46 47.98,29.98 66.32,52.56l-57.85 57.15c-9.88,-15.05 -22.46,-27.28 -37.75,-36.69 -15.29,-9.41 -33.04,-14.11 -53.27,-14.11 -20.22,0 -38.1,4.7 -53.62,14.11 -15.52,9.41 -27.75,22.58 -36.69,39.51 -8.93,16.94 -13.4,36.22 -13.4,57.86 0,21.16 4.47,40.21 13.4,57.15 8.94,16.93 21.17,30.1 36.69,39.51 15.52,9.4 33.4,14.11 53.62,14.11 20.7,0 38.57,-4.71 53.62,-14.11 15.06,-9.41 27.52,-21.64 37.4,-36.69zm-195.44 273.75l28.93 -45.15c6.11,5.64 13.87,10.34 23.28,14.11 9.41,3.76 18.82,5.64 28.22,5.64 11.29,0 20.23,-2.35 26.81,-7.05 6.59,-4.71 9.88,-11.29 9.88,-19.76 0,-8.47 -3.76,-15.17 -11.29,-20.11 -7.52,-4.94 -17.87,-7.41 -31.04,-7.41 -4.23,0 -9.17,0.24 -14.82,0.71 -5.64,0.47 -11.52,1.65 -17.64,3.53l25.4 -88.2 51.51 0 -19.05 67.74 -26.11 -31.05c19.29,-0.47 36.93,2.24 52.92,8.12 15.99,5.88 28.81,14.34 38.45,25.4 9.65,11.05 14.47,24.34 14.47,39.86 0,23.05 -8.94,42.33 -26.81,57.86 -17.88,15.52 -42.57,23.28 -74.09,23.28 -15.99,0 -30.45,-2.47 -43.39,-7.41 -12.93,-4.94 -24.81,-11.64 -35.63,-20.11zm569.38 -145.34c-38.57,0 -72.67,-8.12 -102.3,-24.34 -29.63,-16.23 -52.68,-38.46 -69.14,-66.68 -16.47,-28.22 -24.7,-60.67 -24.7,-97.36 0,-37.16 8.23,-69.85 24.7,-98.07 16.46,-28.23 39.51,-50.45 69.14,-66.68 29.63,-16.23 63.73,-24.34 102.3,-24.34 38.57,0 72.68,8.11 102.31,24.34 29.63,16.23 52.68,38.45 69.14,66.68 16.47,28.22 24.7,60.91 24.7,98.07 0,36.22 -8.23,68.55 -24.7,97.01 -16.46,28.46 -39.51,50.8 -69.14,67.03 -29.63,16.22 -63.74,24.34 -102.31,24.34zm0 -76.91c19.76,-0.47 37.28,-5.29 52.57,-14.46 15.29,-9.17 27.04,-22.11 35.28,-38.81 8.23,-16.69 12.34,-36.1 12.34,-58.2 0,-22.11 -4.11,-41.63 -12.34,-58.56 -8.24,-16.94 -19.99,-29.99 -35.28,-39.16 -15.29,-9.17 -32.81,-14 -52.57,-14.47 -19.75,0 -37.15,4.71 -52.21,14.12 -15.05,9.4 -26.81,22.57 -35.27,39.51 -8.47,16.93 -12.7,36.45 -12.7,58.56 0,22.1 4.23,41.51 12.7,58.2 8.46,16.7 20.22,29.76 35.27,39.16 15.06,9.41 32.46,14.11 52.21,14.11zm75.5 -455.78l57.85 24.69c-5.17,26.81 -15.17,47.27 -29.98,61.39 -14.82,14.11 -31.87,21.16 -51.15,21.16 -12.7,0 -24.7,-2.7 -35.99,-8.11 -11.29,-5.41 -21.87,-11.41 -31.75,-17.99 -7.05,-5.18 -13.17,-9.18 -18.34,-12 -5.18,-2.82 -10.11,-4.23 -14.82,-4.23 -6.58,0 -12.11,3.53 -16.58,10.58 -4.47,7.06 -7.88,18.11 -10.23,33.16l-58.56 -24.69c5.64,-26.81 15.76,-47.27 30.34,-61.38 14.58,-14.11 31.51,-21.17 50.8,-21.17 13.17,0 25.4,2.7 36.69,8.11 11.29,5.41 21.63,11.41 31.04,18 7.06,5.17 13.29,9.17 18.7,11.99 5.41,2.82 10.23,4.23 14.46,4.23 6.59,0 12.23,-3.64 16.94,-10.93 4.7,-7.29 8.23,-18.23 10.58,-32.81zm578.55 410.63l49.39 57.15c-17.87,20.22 -40.81,36.1 -68.79,47.62 -27.99,11.53 -58.92,17.29 -92.78,17.29 -40.92,0 -76.91,-8 -107.95,-23.99 -31.05,-15.99 -55.27,-38.1 -72.67,-66.32 -17.41,-28.22 -26.11,-60.91 -26.11,-98.07 0,-37.16 8.35,-69.97 25.05,-98.43 16.7,-28.45 39.51,-50.68 68.44,-66.67 28.92,-15.99 61.5,-23.99 97.72,-23.99 35.27,0 66.67,7.88 94.19,23.64 27.51,15.75 49.03,37.51 64.55,65.26 15.53,27.75 23.29,59.97 23.29,96.66l0 4.23 -91.02 0 0 -9.88c0,-21.63 -3.88,-40.45 -11.64,-56.44 -7.76,-15.99 -18.34,-28.46 -31.75,-37.39 -13.4,-8.94 -29.28,-13.41 -47.62,-13.41 -19.29,0 -36.22,4.59 -50.8,13.76 -14.58,9.17 -25.99,22.34 -34.22,39.51 -8.23,17.17 -12.35,37.51 -12.35,61.03 0,24.93 5.06,46.21 15.17,63.85 10.11,17.64 23.99,31.05 41.63,40.22 17.64,9.17 37.98,13.76 61.03,13.76 42.33,0 78.08,-16.47 107.24,-49.39zm54.33 -38.1l-313.27 0 0 -59.27 301.98 0 11.29 27.52 0 31.75zm119.24 95.95l50.8 -57.85c15.99,15.99 35.16,28.69 57.5,38.1 22.34,9.41 45.27,14.11 68.79,14.11 21.64,0 38.92,-4 51.86,-11.99 12.93,-8 19.4,-17.88 19.4,-29.64 0,-12.23 -5.76,-21.28 -17.28,-27.16 -11.53,-5.88 -32.81,-10.94 -63.86,-15.17 -51.74,-7.53 -89.6,-19.64 -113.59,-36.34 -23.99,-16.69 -35.98,-39.86 -35.98,-69.49 0,-23.52 6.58,-44.1 19.75,-61.74 13.17,-17.64 31.52,-31.4 55.03,-41.27 23.52,-9.88 50.1,-14.82 79.73,-14.82 35.28,0 66.44,5.64 93.49,16.93 27.04,11.29 50.21,26.11 69.49,44.45l-50.8 57.86c-14.58,-15.05 -31.39,-27.05 -50.44,-35.99 -19.05,-8.93 -39.4,-13.4 -61.03,-13.4 -20.23,0 -36.34,3.76 -48.33,11.29 -12,7.52 -17.99,16.93 -17.99,28.22 0,9.88 5.88,17.4 17.63,22.58 11.76,5.17 32.46,9.64 62.09,13.4 50.8,7.53 88.9,19.99 114.3,37.4 25.4,17.4 38.1,42.57 38.1,75.49 0,23.99 -7.05,45.04 -21.16,63.15 -14.12,18.11 -33.52,31.98 -58.21,41.63 -24.7,9.64 -53.51,14.46 -86.43,14.46 -35.28,0 -67.74,-5.88 -97.37,-17.64 -29.63,-11.76 -54.8,-27.28 -75.49,-46.57z"/>
  <path class="fil0" d="M1653.83 2369.09l233.92 -284.78c-175.44,-180.53 -444.96,-294.95 -701.77,-294.95 -539.05,0 -948.42,386.49 -948.42,900.1 0,516.17 401.74,910.28 933.16,910.28 259.35,0 531.42,-124.59 719.57,-317.84l-236.46 -256.81c-127.14,127.14 -302.58,208.5 -462.77,208.5 -305.12,0 -541.59,-239 -541.59,-549.21 0,-310.21 236.47,-546.68 541.59,-546.68 165.28,0 340.72,91.54 462.77,231.39zm1947.68 1212.85l-378.86 -587.35c216.13,-101.71 333.09,-300.04 333.09,-574.65 0,-394.11 -264.43,-617.87 -729.74,-617.87l-772.97 0 0 1779.87 401.74 0 0 -508.53 371.23 0 38.14 0 282.23 508.53 455.14 0zm-1146.74 -1446.78l371.23 0c221.21,0 348.34,99.17 348.34,297.5 0,203.41 -127.13,305.11 -348.34,305.11l-371.23 0 0 -602.61zm1362.87 -333.09l0 1779.87 401.74 0 0 -1779.87 -401.74 0zm2034.13 1779.87l429.71 0 -760.26 -1779.87 -414.45 0 -772.97 1779.87 414.45 0 139.85 -345.8 823.82 0 139.85 345.8zm-831.46 -668.72l282.24 -691.61 279.69 691.61 -561.93 0z"/>
 </g>
</svg>
