<?xml version="1.0" encoding="utf-8" ?>
<svg xmlns="http://www.w3.org/2000/svg" xmlns:xlink="http://www.w3.org/1999/xlink" width="979" height="354" viewBox="0 0 979 354">
<path fill="white" fill-rule="evenodd" d="M268.764 0L277.496 0C280.261 1.06907 282.607 1.61681 285.436 2.90754C299.91 9.51101 305.897 27.5486 298.6 41.8464C295.091 48.5761 289.077 53.6583 281.854 55.9974C274.525 58.3722 266.55 57.7259 259.7 54.2019C240.021 43.9076 238.848 16.1192 257.738 4.37777C261.201 2.22502 264.901 1.18992 268.764 0Z"/>
<path fill="#BF0F2B" fill-rule="evenodd" d="M763.195 354C761.766 353.58 760.065 352.961 758.666 352.598C754.072 351.407 752.586 345.762 758.088 344.664C764.708 347.493 770.511 348.471 773.606 340.907C773.927 340.122 773.978 339.664 773.853 338.842C773.135 338.185 773.088 338.39 771.919 338.345C767.223 340.765 766.448 342.222 760.902 340.434C745.056 335.326 749.661 308.197 766.897 310.864C768.608 311.129 772.287 313.568 773.95 313.164C775.576 311.051 778.379 310.634 780.652 311.961C782.211 313.828 781.664 326.9 781.606 330.221C781.38 343.145 783.085 348.751 770.154 354L763.195 354Z M765.735 318.272C775.19 319.154 776.811 330.041 767.633 333.694C763.758 333.46 761.082 332.313 759.795 328.257C759.151 326.263 759.346 324.093 760.334 322.245C761.623 319.858 763.253 319 765.735 318.272Z"/>
<path fill="white" fill-rule="evenodd" d="M110.191 66.6009C127.548 65.6234 143.42 67.1835 159.756 73.4421C185.484 83.3464 206.168 103.142 217.181 128.403C228.919 155.191 229.611 185.525 219.107 212.82C209.198 238.463 189.558 259.158 164.459 270.402C137.12 282.277 106.173 282.776 78.4654 271.788L78.4501 293.089C78.539 306.775 80.5848 320.616 70.826 331.805C52.0812 353.296 14.0534 342.155 12.9455 312.687C12.4141 298.554 12.7773 283.917 12.7714 269.674L12.7371 186.189L12.7513 128.129C12.7597 117.871 12.1909 104.89 13.4789 94.9698C16.1666 74.2682 41.77 63.2009 59.5261 73.3368C62.6887 75.1422 64.5134 76.6896 67.2333 79.1442C82.0443 71.5109 93.4634 67.9768 110.191 66.6009Z M113.238 132.808C135.545 129.393 156.368 144.781 159.638 167.095C162.908 189.409 147.375 210.118 125.026 213.24C102.883 216.333 82.3949 200.984 79.1549 178.876C75.9149 156.768 91.1384 136.191 113.238 132.808Z"/>
<path fill="white" fill-rule="evenodd" d="M417.042 68.0441C417.364 68.0102 417.688 67.9853 418.012 67.9697C470.137 65.8076 511.07 105.524 512.419 157.177C512.958 177.827 512.28 198.955 512.532 219.668C512.653 229.646 513.238 241.791 511.843 251.385C508.176 276.605 474.729 285.784 456.905 268.883C443.488 256.397 446.959 239.263 446.507 222.934C446.358 202.823 446.857 182.681 446.573 162.573C446.315 144.306 436.008 132.963 417.478 133.577C416.617 133.689 415.76 133.826 414.907 133.986C392.179 138.322 393.266 159.807 393.289 177.603L393.371 223.346C393.386 230.69 393.797 244.015 392.661 250.667C391.858 255.377 390.063 259.863 387.395 263.827C372.093 286.121 333.566 280.065 328.36 252.269C326.664 243.213 327.468 229.556 327.465 219.999L327.466 167.235L327.485 121.416C327.488 115.566 327.177 102.521 327.81 97.2182C328.385 91.9992 330.271 87.0102 333.293 82.7152C338.189 75.9138 345.599 71.3469 353.878 70.0282C364.118 68.4087 371.404 70.9721 379.504 76.8275C394.165 70.7404 401.329 68.9443 417.042 68.0441Z"/>
<path fill="#BF0F2B" fill-rule="evenodd" d="M550.935 68.9281C566.64 66.9709 581.939 75.627 586.207 91.141C588.36 98.9683 587.798 107.687 587.797 115.783L587.71 161.406C587.666 183.187 584.131 213.313 614.99 213.194C643.319 213.085 641.406 186.024 641.367 166.304L641.279 122.623C641.265 114.94 640.751 100.08 642.357 93.156C643.621 87.4689 646.439 82.2434 650.495 78.0596C663.017 65.3925 685.436 65.5815 697.954 78.2131C701.718 82.0572 704.391 86.8327 705.7 92.0498C707.62 99.9037 707.062 114.187 707.061 122.831L707.044 162.19C707.099 192.463 708.073 216.7 689.552 242.596C660.033 283.869 598.77 291.134 558.453 261.754C539.193 247.719 527.139 226.458 523.575 203.042C521.992 192.638 522.244 182.247 522.237 171.721L522.246 135.577C522.243 125.226 522.258 114.702 522.186 104.357C522.053 85.2483 531.333 71.8592 550.935 68.9281Z"/>
<path fill="#BF0F2B" fill-rule="evenodd" d="M785.806 66.6002C802.642 65.0059 826.46 68.6246 838.443 81.4146C843.322 86.5412 845.952 93.402 845.748 100.474C845.128 118.574 829.399 127.341 812.644 124.456C806.361 123.374 789.896 117.333 784.798 123.162C774.746 134.654 799.835 139.415 806.396 141.987C810.339 143.447 813.641 144.481 817.546 146.419C824.889 150.143 831.576 155.035 837.346 160.906C868.931 193.205 856.874 252.32 816.287 270.865C800.941 277.877 790.029 279.686 773.25 279.398C757.968 278.123 738.474 273.728 727.209 263.856C701.744 241.54 723.678 200.096 757.112 211.051C766.998 214.291 786.355 222.585 792.432 210.69C797.234 201.292 782.464 196.114 776.082 193.743C748.948 184.216 723.71 167.402 720.768 136.115C719.322 120.043 724.317 104.054 734.657 91.6594C747.562 76.2291 766.082 68.3533 785.806 66.6002Z"/>
<path fill="white" fill-rule="evenodd" d="M268.158 68.9449C277.345 68.4512 284.027 68.9391 292.049 74.2273C298.918 78.8106 303.687 85.93 305.31 94.0234C306.557 100.232 306.25 115.136 306.257 122.091L306.283 166.764L306.287 218.044C306.283 243.181 310.45 270.789 278.217 277.072C268.952 277.859 261.61 276.875 253.775 271.711C237.354 260.889 239.788 241.802 239.777 224.97L239.763 179.899L239.769 127.434C239.776 102.215 235.688 74.8174 268.158 68.9449Z"/>
<path fill="#BF0F2B" fill-rule="evenodd" d="M901.607 219.412C917.501 217.169 932.219 228.188 934.534 244.061C936.849 259.935 925.89 274.693 910.016 277.078C894.042 279.477 879.161 268.44 876.832 252.465C874.502 236.491 885.613 221.668 901.607 219.412Z"/>
<path fill="#BF0F2B" fill-rule="evenodd" d="M387.09 299.612C389.173 299.54 391.411 299.28 393.211 300.254C393.483 300.613 393.916 301.011 393.965 301.457C394.388 305.279 395.05 338.598 393.47 340.254C392.806 340.95 391.872 341.541 390.915 341.623C388.863 341.799 387.17 340.068 385.715 338.836C380.711 338.735 381.748 344.218 371.177 340.466C354.711 330.563 366.01 301.168 385.631 313.87C385.545 309.862 384.736 302.297 387.09 299.612Z M376.209 318.679C386.461 317.4 389.19 328.431 381.313 333.66C371.577 335.122 367.95 324.682 376.209 318.679Z"/>
<path fill="#BF0F2B" fill-rule="evenodd" d="M652.55 299.688C654.006 299.58 659.258 299.18 659.244 301.413C659.209 306.894 660.538 337.548 658.717 340.382C655.006 342.308 653.78 341.561 651.057 338.774C644.236 339.701 646.946 344.44 636.557 340.417C619.311 330.387 632.87 300.369 651.056 314.115C650.961 309.893 650.058 302.509 652.55 299.688Z M643.013 318.164C653.098 318.92 654.244 330.548 645.463 334.073C636.071 333.947 633.491 322.476 643.013 318.164Z"/>
<path fill="#BF0F2B" fill-rule="evenodd" d="M593.136 299.646C595.908 299.536 598.236 298.94 600.048 301.233C600.751 306.964 600.654 333.04 599.728 339.949C599.687 340.251 598.148 341.517 597.027 341.568C595.006 341.659 593.459 340.194 591.921 338.968C588.369 338.401 588.078 343.967 577.865 340.635C577.439 340.368 577.017 340.094 576.6 339.814C561.088 329.408 573.815 300.982 591.774 313.898C591.761 310.338 591.064 301.827 593.136 299.646Z M584.114 318.256C587.617 318.613 590.19 319.739 591.553 323.271C592.364 325.336 592.287 327.644 591.34 329.649C590.113 332.281 588.703 333.119 586.123 334.044C582.497 333.964 579.905 332.574 578.577 329.033C577.758 326.902 577.85 324.528 578.831 322.467C580.033 319.929 581.627 319.094 584.114 318.256Z"/>
<path fill="#BF0F2B" fill-rule="evenodd" d="M507.566 310.615C509.152 310.507 510.222 310.466 511.753 310.818C512.305 310.902 517.725 313.357 517.72 313.36C520.976 311.507 522.96 308.993 526.077 312.419C527.396 319.291 525.905 331.335 526.294 338.668C526.437 341.363 522.294 341.437 520.239 341.173C518.544 340.055 519.036 340.345 518.031 338.208C499.15 353.678 483.931 316.73 507.566 310.615Z M510.274 318.15C513.69 318.349 516.538 319.953 517.785 323.265C518.557 325.378 518.446 327.712 517.477 329.741C516.212 332.441 514.792 333.14 512.232 334.111C508.387 333.763 505.571 332.516 504.235 328.508C503.525 326.407 503.727 324.106 504.79 322.16C506.107 319.743 507.807 318.919 510.274 318.15Z"/>
<path fill="#BF0F2B" fill-rule="evenodd" d="M416.264 310.63C425.889 310.313 434.045 316.643 433.756 326.399C433.645 330.14 414.845 327.409 411.421 328.649C411.318 339.014 425.85 331.787 428.234 332.296C429.606 333.462 430.69 334.922 431.819 336.328C425.833 341.787 417.329 343.884 410.086 339.521C406.515 337.375 403.952 333.89 402.969 329.844C401.994 325.732 402.678 321.403 404.873 317.792C407.627 313.357 411.417 311.744 416.264 310.63Z M415.944 317.755L416.196 317.739C419.015 317.567 424.551 318.381 424.635 321.95C423.441 322.844 423.34 322.544 421.532 322.604C419.05 322.662 414.136 323.064 412.211 321.89L412.125 320.964C413.043 319.454 414.462 318.712 415.944 317.755Z"/>
<path fill="#BF0F2B" fill-rule="evenodd" d="M682.106 310.623C690.698 310.31 699.428 316.625 699.224 326.024C699.117 330.92 680.577 326.756 676.97 328.847C677.483 335.677 683.536 334.702 688.552 333.504C691.03 332.912 690.923 331.463 693.598 332.302C695.243 333.833 696.335 334.503 696.18 336.774C692.265 342.669 681.073 343.103 675.253 339.404C671.711 337.151 669.242 333.552 668.414 329.438C666.282 319.316 672.557 312.566 682.106 310.623Z M681.734 317.684C682.118 317.659 682.504 317.64 682.889 317.628C685.445 317.546 689.946 318.872 689.943 321.842C688.452 322.887 687.864 322.551 685.827 322.585C683.064 322.646 679.885 323.077 677.564 321.77L677.54 320.799C678.739 319.214 680.021 318.646 681.734 317.684Z"/>
<path fill="#BF0F2B" fill-rule="evenodd" d="M804.597 310.597C819.526 310.04 817.476 325.181 817.533 335.463C817.556 339.461 815.082 343.096 810.895 340.778C804.699 337.348 814.952 314.023 801.153 319.126C796.568 324.425 799.671 332.761 798.586 339.132C798.068 342.174 791.987 342.407 791.146 339.175C789.729 333.723 789.449 316.449 791.18 311.779C794.497 309.456 796.167 311.297 798.655 313.692C800.712 313.348 801.125 311.817 804.597 310.597Z"/>
<path fill="#BF0F2B" fill-rule="evenodd" d="M549.855 310.593C550.698 310.545 551.543 310.549 552.385 310.605C565.669 311.462 563.919 337.989 560.47 340.904C545.464 343.532 562.671 315.873 546.861 318.703C538.633 326.029 551.028 344.018 536.662 340.523C534.576 340.015 535.319 314.917 536.044 312.314C536.676 311.604 537.696 311.042 538.592 310.979C543.13 310.657 542.43 315.771 546.738 311.946C547.176 311.557 549.149 310.825 549.855 310.593Z"/>
<path fill="#BF0F2B" fill-rule="evenodd" d="M453.765 330.09C455.956 325.022 457.585 319.634 459.635 314.465C461.247 310.4 466.908 309.924 468.405 313.345C468.331 315.515 466.728 318.692 465.813 320.798C463.475 326.787 460.284 335.446 457.261 340.97C454.856 341.19 452.402 341.054 449.986 340.978C449.746 340.577 449.515 340.172 449.292 339.761C447.22 335.991 438.137 314.79 439.066 311.576C441.426 311.372 443.967 311.414 446.352 311.406C448.15 314.515 452.214 326.038 453.765 330.09Z"/>
<path fill="#BF0F2B" fill-rule="evenodd" d="M714.421 310.642C718.504 310.367 725.348 312.055 725.833 316.899C723.515 321.466 717.17 316.471 713.333 318.493L713.362 319.36C716.492 325.128 734.102 324.903 725.205 338.163C723.399 340.855 718.881 341.575 715.93 341.832C711.697 341.591 703.626 339.513 705.342 333.781C706.382 332.352 708.257 331.878 709.951 331.241C712.441 334.005 714.085 335.246 718.34 334.562C718.887 334.474 718.926 334.085 719.214 333.571C718.967 329.738 712.927 328.7 710.24 327.091C700.988 321.549 705.631 313.095 714.421 310.642Z"/>
<path fill="#BF0F2B" fill-rule="evenodd" d="M826.864 309.691C829.693 309.999 848.377 319.458 850.952 322.709C852.143 324.214 852.474 324.991 852.311 326.875C851.009 330.111 838.204 336.098 834.232 338.194C831.379 339.791 827.604 342.358 825.416 338.535C824.189 332.542 837.192 327.817 841.832 325.405C839.516 323.964 836.473 322.568 834.013 321.426C827.552 318.425 824.434 317.157 826.864 309.691Z"/>
<path fill="#BF0F2B" fill-rule="evenodd" d="M352.828 309.979C354.312 310.03 353.903 309.824 355.07 310.575C355.646 311.976 356.339 313.614 355.769 315.096C354.171 319.245 343.773 323.232 339.552 325.347C344.173 327.697 356.792 332.588 356.283 338.316C355.639 339.814 355.458 339.952 354.154 340.949C352.632 340.991 351.047 340.049 349.635 339.374C319.191 323.068 324.222 324.844 352.828 309.979Z"/>
<path fill="#BF0F2B" fill-rule="evenodd" d="M736.071 311.535C738.174 311.391 740.529 311.123 742.395 312.064C744.167 314.383 743.374 335.899 742.887 339.65C742.887 339.65 741.912 340.804 741.78 340.96C736.865 341.379 734.382 341.313 734.715 335.515C735.006 330.467 733.656 314.987 736.071 311.535Z"/>
<path fill="#BF0F2B" fill-rule="evenodd" d="M737.123 299.178C738.812 298.506 740.734 298.815 742.128 299.981C743.522 301.146 744.165 302.982 743.802 304.762C743.44 306.543 742.13 307.981 740.39 308.509C737.851 309.28 735.155 307.913 734.279 305.409C733.402 302.906 734.657 300.157 737.123 299.178Z"/>
</svg>